<?xml version="1.0" encoding="UTF-8"?>
<svg id="Layer_2" data-name="Layer 2" xmlns="http://www.w3.org/2000/svg" viewBox="0 0 747.79 947.21">
  <defs>
    <style>
      .cls-1 {
        fill: #000;
        stroke-width: 0px;
      }
    </style>
  </defs>
  <g id="Layer_1-2" data-name="Layer 1">
    <path class="cls-1" d="M681.86,463.54c-74.07-45.4-180.4-52.57-304.64-22.7-17.92-102.74,11.95-224.6,13.14-226.99,2.39-8.36-3.58-17.92-13.14-20.31-8.36-2.39-17.92,2.39-20.31,11.95l-83.63,267.61c-7.17,2.39-15.53,5.97-22.7,8.36-88.41,35.84-138.58,97.96-137.39,172.03,1.19,63.32,43.01,121.86,105.13,144.56,39.42,14.34,145.75,33.45,266.41-105.13,7.17-7.17,5.97-17.92-1.19-25.09-7.17-5.97-17.92-4.78-25.09,2.39-75.26,86.02-158.89,120.66-228.18,94.38-47.79-16.73-81.24-62.12-81.24-112.3-1.19-57.34,40.62-108.72,114.69-138.58,29.87-11.95,59.73-21.5,88.41-29.87,5.97,20.31,14.34,39.42,25.09,57.34,26.28,38.23,62.12,62.12,108.72,70.49,60.93,9.56,114.69-5.97,161.28-46.59,16.73-14.34,31.06-31.06,44.2-50.18,1.19,0,2.39,1.19,2.39,2.39,52.57,48.98,68.1,124.25,40.62,207.87-33.45,101.55-168.45,189.95-330.93,215.04-146.95,23.89-271.19-14.34-333.32-100.35C-.3,741.9-18.22,611.68,18.81,475.48c37.04-135,124.25-267.61,246.1-373.93C341.37,34.65,423.81,0,503.85,0c35.84,0,71.68,7.17,106.33,22.7,76.46,32.26,132.61,100.35,135,164.87,3.58,74.07-15.53,189.95-63.32,275.97ZM623.32,538.8c-37.04,33.45-81.24,46.59-131.41,38.23-37.04-7.17-64.51-25.09-84.82-54.96-9.56-14.34-16.73-29.87-21.5-47.79,114.69-26.28,212.65-20.31,278.36,19.11-11.95,17.92-25.09,33.45-40.62,45.4Z"/>
  </g>
</svg>