<?xml version="1.0" encoding="UTF-8"?>
<svg id="Layer_2" data-name="Layer 2" xmlns="http://www.w3.org/2000/svg" viewBox="0 0 378.06 425.89">
  <defs>
    <style>
      .cls-1 {
        fill: #c2bbb3;
        stroke-width: 0px;
      }
    </style>
  </defs>
  <g id="Layer_1-2" data-name="Layer 1">
    <path class="cls-1" d="M0,210.29C0,136.54,14.72,83.05,44.18,49.83,73.64,16.61,122.14,0,189.69,0s115.83,16.39,144.84,49.17c29.01,32.79,43.52,86.04,43.52,159.79s-14.95,128.35-44.85,163.78c-29.9,35.44-78.18,53.15-144.84,53.15s-114.73-17.49-144.18-52.49C14.72,338.42,0,284.04,0,210.29ZM226.57,131.22c-5.76-11.29-18.17-16.94-37.21-16.94s-31.23,5.54-36.54,16.61c-5.32,11.08-7.97,34.78-7.97,71.09v29.23c0,37.21,2.88,61.36,8.64,72.42,5.75,11.08,18.38,16.61,37.87,16.61s31.66-5.32,36.54-15.95c4.87-10.63,7.31-34.32,7.31-71.09v-30.56c0-36.31-2.89-60.13-8.64-71.42Z"/>
  </g>
</svg>