<?xml version="1.0" encoding="UTF-8"?>
<svg id="Layer_2" data-name="Layer 2" xmlns="http://www.w3.org/2000/svg" viewBox="0 0 302.31 425.89">
  <defs>
    <style>
      .cls-1 {
        fill: #c2bbb3;
        stroke-width: 0px;
      }
    </style>
  </defs>
  <g id="Layer_1-2" data-name="Layer 1">
    <path class="cls-1" d="M143.51,217.93c0,33.67,3.76,58.14,11.3,73.42,7.53,15.28,20.15,22.92,37.87,22.92s47.17-4.87,88.37-14.62l21.26,105.64c-43.42,13.74-85.27,20.6-125.58,20.6-61.57,0-106.42-17.61-134.55-52.82C14.06,337.86,0,285.37,0,215.61S14.62,92.47,43.85,55.48C73.09,18.5,120.7,0,186.7,0c38.54,0,77.07,7.54,115.61,22.59l-21.93,118.27c-43.85-12.84-73.86-19.27-90.03-19.27s-28.02,7.64-35.55,22.92c-7.54,15.28-11.3,39.76-11.3,73.42Z"/>
  </g>
</svg>