<?xml version="1.0" encoding="UTF-8"?>
<svg id="Layer_2" data-name="Layer 2" xmlns="http://www.w3.org/2000/svg" viewBox="0 0 522.56 363">
  <defs>
    <style>
      .cls-1 {
        fill: #c2bbb3;
        stroke-width: 0px;
      }
    </style>
  </defs>
  <g id="Layer_1-2" data-name="Layer 1">
    <path class="cls-1" d="M0,304l97.78-74.5c59.45,29.5,126.73,41,191.66,41,33.64,0,46.94-5.5,46.94-15v-1c0-10-17.21-15.5-75.88-23-122.82-16-230.77-38.5-230.77-112.5v-1C29.73,51.5,111.87,0,262.06,0c106.39,0,183.83,16,247.2,48l-89.18,79c-52.41-24-113.43-34.5-164.28-34.5-27.38,0-39.9,6-39.9,14.5v1c0,9.5,14.08,16,72.75,22.5,140.03,16,233.9,43,233.9,113v1c0,73.5-94.65,118.5-241.72,118.5-111.86,0-211.21-19.5-280.84-59Z"/>
  </g>
</svg>